<svg width="32" height="32" viewBox="0 0 32 32" fill="none" xmlns="http://www.w3.org/2000/svg">
<path d="M0 16C0 7.16344 7.16344 0 16 0C24.8366 0 32 7.16344 32 16C32 24.8366 24.8366 32 16 32C7.16344 32 0 24.8366 0 16Z" fill="white"/>
<path d="M23.5 16C23.5 11.8579 20.1421 8.5 16 8.5C11.8579 8.5 8.5 11.8579 8.5 16C8.5 20.1421 11.8579 23.5 16 23.5C20.1421 23.5 23.5 20.1421 23.5 16Z" stroke="#0A0A0A" stroke-width="1.125"/>
<path d="M13 16.375L14.875 18.25L19 13.75" stroke="#0A0A0A" stroke-width="1.125" stroke-linecap="round" stroke-linejoin="round"/>
</svg>
