<svg width="32" height="32" viewBox="0 0 32 32" fill="none" xmlns="http://www.w3.org/2000/svg">
<path d="M0 16C0 7.16344 7.16344 0 16 0C24.8366 0 32 7.16344 32 16C32 24.8366 24.8366 32 16 32C7.16344 32 0 24.8366 0 16Z" fill="white"/>
<path d="M21.0316 9.62151C19.6124 8.91537 17.8757 8.5 16 8.5C14.1243 8.5 12.3876 8.91537 10.9684 9.62151C10.2724 9.9678 9.92439 10.1409 9.5872 10.6853C9.25 11.2297 9.25 11.7569 9.25 12.8111V15.4278C9.25 19.6904 12.6568 22.0603 14.6298 23.0753C15.18 23.3585 15.4551 23.5 16 23.5C16.5449 23.5 16.82 23.3585 17.3702 23.0753C19.3432 22.0603 22.75 19.6904 22.75 15.4278V12.8111C22.75 11.7569 22.75 11.2297 22.4128 10.6853C22.0756 10.1409 21.7276 9.9678 21.0316 9.62151Z" stroke="#0A0A0A" stroke-width="1.125" stroke-linecap="round" stroke-linejoin="round"/>
</svg>
