<svg width="32" height="32" viewBox="0 0 32 32" fill="none" xmlns="http://www.w3.org/2000/svg">
<path d="M0 16C0 7.16344 7.16344 0 16 0C24.8366 0 32 7.16344 32 16C32 24.8366 24.8366 32 16 32C7.16344 32 0 24.8366 0 16Z" fill="white"/>
<path d="M22.2688 17.0175C21.3767 17.9095 19.6981 17.8749 17.1244 17.8749C15.4686 17.8749 14.126 16.5303 14.1252 14.8745C14.1252 12.3025 14.0905 10.623 14.9826 9.73104C15.8747 8.83909 16.2687 8.8752 20.2206 8.8752C20.6025 8.87357 20.7947 9.33542 20.5247 9.60546L18.4899 11.6404C17.9735 12.1569 17.9721 12.9942 18.4886 13.5107C19.0051 14.0271 19.8426 14.0272 20.3592 13.5108L22.3944 11.4764C22.6645 11.2064 23.1264 11.3986 23.1248 11.7805C23.1248 15.7317 23.1609 16.1256 22.2688 17.0175Z" stroke="#0A0A0A" stroke-width="1.125"/>
<path d="M17.125 17.875L12.4963 22.5037C11.6679 23.3321 10.3247 23.3321 9.49632 22.5037C8.66789 21.6752 8.66789 20.3321 9.49632 19.5037L14.125 14.875" stroke="#0A0A0A" stroke-width="1.125" stroke-linecap="round"/>
<path d="M11.1317 20.875H11.125" stroke="#0A0A0A" stroke-width="1.5" stroke-linecap="round" stroke-linejoin="round"/>
</svg>
